<svg width="67" height="46" viewBox="0 0 67 46" fill="none" xmlns="http://www.w3.org/2000/svg">
<path d="M61.4167 0H5.58333C2.54042 0.102222 0.111667 2.32556 0 5.11111V40.8889C0.111667 43.6744 2.54042 45.8978 5.58333 46H61.4167C64.4596 45.8978 66.8883 43.6744 67 40.8889V5.11111C66.9486 3.77053 66.3439 2.49765 65.3077 1.54914C64.2716 0.600626 62.8811 0.0470361 61.4167 0ZM61.4167 40.8889H5.58333V5.11111H61.4167V40.8889ZM39.0833 35.7778V32.5833C39.0833 28.3411 29.7592 26.1944 25.125 26.1944C20.4908 26.1944 11.1667 28.3411 11.1667 32.5833V35.7778H39.0833ZM25.125 10.2222C23.274 10.2222 21.4988 10.8953 20.19 12.0935C18.8811 13.2916 18.1458 14.9167 18.1458 16.6111C18.1458 17.4501 18.3264 18.2809 18.6771 19.056C19.0278 19.8312 19.5419 20.5355 20.19 21.1287C21.4988 22.3269 23.274 23 25.125 23C26.0415 23 26.9491 22.8347 27.7958 22.5137C28.6426 22.1926 29.4119 21.722 30.06 21.1287C30.7081 20.5355 31.2222 19.8312 31.5729 19.056C31.9236 18.2809 32.1042 17.4501 32.1042 16.6111C32.1042 15.7721 31.9236 14.9413 31.5729 14.1662C31.2222 13.3911 30.7081 12.6867 30.06 12.0935C29.4119 11.5002 28.6426 11.0296 27.7958 10.7085C26.9491 10.3875 26.0415 10.2222 25.125 10.2222ZM39.0833 10.2222V12.7778H55.8333V10.2222H39.0833ZM39.0833 15.3333V17.8889H55.8333V15.3333H39.0833ZM39.0833 20.4444V23H50.25V20.4444H39.0833Z" fill="#DED27C"/>
</svg>
